# xmcd
#
# Track frame offsets:
#	150
#	14339
#	34555
#	60639
#	79187
#	92829
#	114383
#	150510
#	174244
#	200280
#	230294
#	265783
#	297757
#
# Disc length: 4447 seconds
#
# Revision: 0
# Processed by: cddbd v1.5.1PL0 Copyright (c) Steve Scherf et al.
# Submitted via: dBpowerAMP V4.0
#
DISCID=99115d0d
DTITLE=Janis Joplin - In Concert
DYEAR=1900
DGENRE=blues
TTITLE0=Down on me
TTITLE1=Bye bye baby
TTITLE2=All is loneliness
TTITLE3=Piece of my heart
TTITLE4=Road block
TTITLE5=Flower in the sun
TTITLE6=Summertime
TTITLE7=Ego rock
TTITLE8=Half moon
TTITLE9=Kozmic blues
TTITLE10=Move over
TTITLE11=Try
TTITLE12=Get it while you can - ball and chain
EXTD=
EXTT0=
EXTT1=
EXTT2=
EXTT3=
EXTT4=
EXTT5=
EXTT6=
EXTT7=
EXTT8=
EXTT9=
EXTT10=
EXTT11=
EXTT12=
PLAYORDER=
